<svg xmlns="http://www.w3.org/2000/svg" width="127" height="26" viewBox="0 0 127 26">
    <g fill="none" fill-rule="evenodd">
        <g>
            <path fill="#FF4320" d="M25.8 3.974c0-.266-.107-.522-.296-.711L22.537.294C22.347.106 22.092 0 21.824 0H4.618c-.267 0-.523.106-.712.294L.94 3.263c-.19.189-.295.445-.295.711v17.207c0 .267.106.522.295.711l2.967 2.969c.19.188.445.294.712.294h17.206c.268 0 .523-.106.713-.294l2.967-2.969c.19-.189.295-.444.295-.711V3.974z" transform="translate(99.976)"/>
            <path fill="#FFF" d="M16.137 8.172l-2.09 5.403-2.857-5.403H9.1l4.065 7.582-.544 1.238-.058.146c-.107.26-.229.44-.36.534-.126.09-.332.137-.615.137-.352 0-.661-.012-.928-.034l-.303-.026v1.884l1.406.043c.647 0 1.185-.159 1.598-.472.403-.306.748-.812 1.028-1.503l3.819-9.53h-2.07z" transform="translate(99.976)"/>
        </g>
        <g>
            <path fill="#FFC600" d="M25.334 8.603V3.974c0-.266-.106-.522-.294-.711L22.072.294C21.882.106 21.627 0 21.36 0H4.154c-.267 0-.523.106-.712.294L.474 3.263c-.189.189-.295.445-.295.711v17.207c0 .267.106.522.295.711l2.968 2.969c.189.188.445.294.712.294H21.36c.267 0 .523-.106.712-.294l2.968-2.969c.188-.189.294-.444.294-.711v-4.63c0-.266.107-.522.295-.71l2.904-2.905c.199-.198.199-.519 0-.717L25.63 9.315c-.188-.19-.295-.445-.295-.712" transform="translate(75.286)"/>
            <path fill="#FFF" d="M13.889 7.962c-.636 0-1.238.174-1.788.518-.244.153-.456.322-.638.506v-.815H9.606v9.33h1.936V13.22c0-1.055.189-1.922.562-2.576.348-.613.87-.911 1.601-.911.488 0 .865.187 1.156.573.305.403.458.987.458 1.732v.736h1.937v-.767c0-1.255-.298-2.249-.884-2.955-.6-.723-1.435-1.09-2.483-1.09" transform="translate(75.286)"/>
        </g>
        <g>
            <path fill="#7255EE" d="M26.003 8.603V3.974c0-.266-.106-.522-.294-.711L22.74.294C22.552.106 22.296 0 22.03 0H4.822c-.267 0-.522.106-.711.294L1.143 3.263c-.189.189-.295.445-.295.711v17.207c0 .267.106.522.295.711l2.968 2.969c.189.188.444.294.711.294H22.03c.267 0 .523-.106.711-.294l2.969-2.969c.188-.189.294-.444.294-.711v-4.63c0-.266.106-.522.295-.71l2.904-2.905c.198-.198.198-.519 0-.717l-2.904-2.904c-.189-.19-.295-.445-.295-.712" transform="translate(49.462)"/>
            <path fill="#FFF" d="M16.105 14.932c-.019.285-.131.518-.345.708-.218.196-.506.29-.883.29-.408 0-.748-.135-1.039-.413-.283-.271-.427-.731-.427-1.367V9.943h3.65V8.171h-3.65V5.743h-1.823v2.428H8.923v1.772h2.665v4.2c0 1.122.325 2.007.966 2.629.64.616 1.415.93 2.305.93.958 0 1.718-.278 2.259-.827.538-.546.81-1.193.81-1.924v-.279h-1.806l-.017.26z" transform="translate(49.462)"/>
        </g>
        <g>
            <path fill="#2F96FD" d="M26.105 8.603V3.974c0-.266-.106-.522-.294-.711L22.843.294C22.653.106 22.398 0 22.13 0H4.925c-.268 0-.524.106-.712.294L1.245 3.263c-.188.189-.295.445-.295.711v17.207c0 .267.107.522.295.711l2.968 2.969c.188.188.444.294.712.294H22.13c.267 0 .523-.106.712-.294l2.968-2.969c.188-.189.294-.444.294-.711v-4.63c0-.266.106-.522.295-.71l2.904-2.905c.198-.198.198-.519 0-.717L26.4 9.315c-.189-.19-.295-.445-.295-.712" transform="translate(24.205)"/>
            <path fill="#FFF" d="M14.574 7.962c-.602 0-1.177.141-1.713.42-.291.152-.553.337-.783.552v-.763h-1.789v9.33h1.823v-4.64c0-.985.212-1.767.628-2.325.404-.54.975-.803 1.746-.803.629 0 1.1.187 1.442.572.345.39.52.961.52 1.699V17.5h1.938v-5.38c0-1.306-.331-2.335-.985-3.058-.664-.73-1.614-1.1-2.827-1.1" transform="translate(24.205)"/>
        </g>
        <path fill="#00D674" d="M25.155 8.603V3.974c0-.266-.106-.522-.295-.711L21.892.294C21.703.106 21.448 0 21.181 0H3.974c-.267 0-.523.106-.711.294L.295 3.263C.106 3.452 0 3.708 0 3.974v17.207c0 .267.106.522.295.711l2.968 2.969c.188.188.444.294.711.294h17.207c.267 0 .522-.106.711-.294l2.968-2.969c.19-.189.295-.444.295-.711v-4.63c0-.266.106-.522.295-.71l2.904-2.905c.198-.198.198-.519 0-.717L25.45 9.315c-.189-.19-.295-.445-.295-.712"/>
        <path fill="#FFF" d="M10.454 11.754c.13-.559.368-1.027.706-1.393.391-.423.905-.628 1.57-.628.655 0 1.169.203 1.569.622.344.36.563.83.652 1.4h-4.497zm4.668-3.037c-.661-.501-1.48-.755-2.435-.755-1.294 0-2.343.481-3.117 1.432-.76.932-1.145 2.105-1.145 3.484 0 1.417.419 2.585 1.244 3.474.83.896 1.955 1.35 3.34 1.35 1.432 0 2.656-.593 3.639-1.765l.171-.203-1.332-1.229-.188.233c-.643.802-1.392 1.192-2.29 1.192-.786 0-1.401-.23-1.878-.703-.419-.416-.677-.988-.769-1.702h6.5l.025-.881c0-.76-.129-1.482-.385-2.149-.263-.684-.727-1.283-1.38-1.778z"/>
    </g>
</svg>
